<svg version="1.1" id="Layer_1" xmlns="http://www.w3.org/2000/svg" x="0" y="0" viewBox="0 0 512 512" style="enable-background:new 0 0 512 512" xml:space="preserve"><path d="M4465 3813.7c-244 0-370.5 126.4-472.2 228-88.3 88.2-152.1 152-288.4 152-136.3 0-200.1-63.7-288.4-152-101.7-101.6-228.2-228-472.2-228s-370.5 126.4-472.2 228c-88.3 88.2-152.1 152-288.4 152-136.3 0-200.1-63.7-288.4-152-101.7-101.6-228.2-228-472.2-228s-370.5 126.4-472.2 228c-88.3 88.2-152.1 152-288.4 152v260c244 0 370.5-126.4 472.2-228 88.3-88.2 152.1-152 288.4-152 136.3 0 200.1 63.7 288.4 152 101.7 101.6 228.2 228 472.2 228s370.5-126.4 472.2-228c88.3-88.2 152.1-152 288.4-152 136.3 0 200.1 63.7 288.4 152 101.7 101.6 228.2 228 472.2 228s370.5-126.4 472.2-228c88.3-88.2 152.1-152 288.4-152v-260z" transform="matrix(.1 0 0 -.1 0 512)"/><path d="M4462.8 3281.7c-244 0-370.5 126.4-472.2 228-88.3 88.2-152.1 152-288.4 152-136.3 0-200.1-63.7-288.4-152-101.7-101.6-228.2-228-472.2-228s-370.5 126.4-472.2 228c-88.3 88.2-152.1 152-288.4 152s-200.1-63.7-288.4-152c-101.7-101.6-228.2-228-472.2-228s-370.5 126.4-472.2 228c-88.3 88.2-152.1 152-288.4 152v260c244 0 370.5-126.4 472.2-228 88.3-88.2 152.1-152 288.4-152 136.3 0 200.1 63.7 288.4 152 101.7 101.6 228.2 228 472.2 228s370.5-126.4 472.2-228c88.3-88.2 152.1-152 288.4-152 136.3 0 200.1 63.7 288.4 152 101.7 101.6 228.2 228 472.2 228s370.5-126.4 472.2-228c88.3-88.2 152.1-152 288.4-152v-260z" transform="matrix(.1 0 0 -.1 0 512)"/><path d="M4462.8 2749.7c-244 0-370.5 126.4-472.2 228-88.3 88.2-152.1 152-288.4 152-136.3 0-200.1-63.7-288.4-152-101.7-101.6-228.2-228-472.2-228s-370.5 126.4-472.2 228c-88.3 88.2-152.1 152-288.4 152s-200.1-63.7-288.4-152c-101.7-101.6-228.2-228-472.2-228s-370.5 126.4-472.2 228c-88.3 88.2-152.1 152-288.4 152v260c244 0 370.5-126.4 472.2-228 88.3-88.2 152.1-152 288.4-152 136.3 0 200.1 63.7 288.4 152 101.7 101.6 228.2 228 472.2 228s370.5-126.4 472.2-228c88.3-88.2 152.1-152 288.4-152 136.3 0 200.1 63.7 288.4 152 101.7 101.6 228.2 228 472.2 228s370.5-126.4 472.2-228c88.3-88.2 152.1-152 288.4-152v-260z" transform="matrix(.1 0 0 -.1 0 512)"/><path d="M4462.8 2217.8c-244 0-370.5 126.4-472.2 228-88.3 88.2-152.1 152-288.4 152-136.3 0-200.1-63.7-288.4-152-101.7-101.6-228.2-228-472.2-228s-370.5 126.4-472.2 228c-88.3 88.2-152.1 152-288.4 152s-200.1-63.7-288.4-152c-101.7-101.6-228.2-228-472.2-228s-370.5 126.4-472.2 228c-88.3 88.2-152.1 152-288.4 152v260c244 0 370.5-126.4 472.2-228 88.3-88.2 152.1-152 288.4-152 136.3 0 200.1 63.7 288.4 152 101.7 101.6 228.2 228 472.2 228s370.5-126.4 472.2-228c88.3-88.2 152.1-152 288.4-152 136.3 0 200.1 63.7 288.4 152 101.7 101.6 228.2 228 472.2 228s370.5-126.4 472.2-228c88.3-88.2 152.1-152 288.4-152v-260z" transform="matrix(.1 0 0 -.1 0 512)"/><path d="M4462.8 1685.8c-244 0-370.5 126.4-472.2 228-88.3 88.2-152.1 152-288.4 152-136.3 0-200.1-63.7-288.4-152-101.7-101.6-228.2-228-472.2-228s-370.5 126.4-472.2 228c-88.3 88.2-152.1 152-288.4 152s-200.1-63.7-288.4-152c-101.7-101.6-228.2-228-472.2-228s-370.5 126.4-472.2 228c-88.3 88.2-152.1 152-288.4 152v260c244 0 370.5-126.4 472.2-228 88.3-88.2 152.1-152 288.4-152 136.3 0 200.1 63.7 288.4 152 101.7 101.6 228.2 228 472.2 228s370.5-126.4 472.2-228c88.3-88.2 152.1-152 288.4-152 136.3 0 200.1 63.7 288.4 152 101.7 101.6 228.2 228 472.2 228s370.5-126.4 472.2-228c88.3-88.2 152.1-152 288.4-152v-260z" transform="matrix(.1 0 0 -.1 0 512)"/><path d="M4462.8 1153.8c-244 0-370.5 126.4-472.2 228-88.3 88.2-152.1 152-288.4 152-136.3 0-200.1-63.7-288.4-152-101.7-101.6-228.2-228-472.2-228s-370.5 126.4-472.2 228c-88.3 88.2-152.1 152-288.4 152s-200.1-63.7-288.4-152c-101.7-101.6-228.2-228-472.2-228s-370.5 126.4-472.2 228c-88.3 88.2-152.1 152-288.4 152v260c244 0 370.5-126.4 472.2-228 88.3-88.2 152.1-152 288.4-152 136.3 0 200.1 63.7 288.4 152 101.7 101.6 228.2 228 472.2 228s370.5-126.4 472.2-228c88.3-88.2 152.1-152 288.4-152 136.3 0 200.1 63.7 288.4 152 101.7 101.6 228.2 228 472.2 228s370.5-126.4 472.2-228c88.3-88.2 152.1-152 288.4-152v-260z" transform="matrix(.1 0 0 -.1 0 512)"/><path d="M4462.8 621.8c-244 0-370.5 126.4-472.2 228-88.3 88.2-152.1 152-288.4 152-136.3 0-200.1-63.7-288.4-152-101.7-101.6-228.2-228-472.2-228s-370.5 126.4-472.2 228c-88.3 88.2-152.1 152-288.4 152s-200.1-63.7-288.4-152c-101.7-101.6-228.2-228-472.2-228s-370.5 126.4-472.2 228c-88.3 88.2-152.1 152-288.4 152v260c244 0 370.5-126.4 472.2-228 88.3-88.2 152.1-152 288.4-152 136.3 0 200.1 63.7 288.4 152 101.7 101.6 228.2 228 472.2 228s370.5-126.4 472.2-228c88.3-88.2 152.1-152 288.4-152 136.3 0 200.1 63.7 288.4 152 101.7 101.6 228.2 228 472.2 228s370.5-126.4 472.2-228c88.3-88.2 152.1-152 288.4-152v-260z" transform="matrix(.1 0 0 -.1 0 512)"/></svg>