<?xml version="1.0" encoding="utf-8"?>
<!-- Generator: Adobe Illustrator 24.0.1, SVG Export Plug-In . SVG Version: 6.00 Build 0)  -->
<svg version="1.1" id="Layer_1" xmlns="http://www.w3.org/2000/svg" xmlns:xlink="http://www.w3.org/1999/xlink" x="0px" y="0px"
	 viewBox="0 0 512 512" style="enable-background:new 0 0 512 512;" xml:space="preserve">
<g transform="translate(0.000000,512.000000) scale(0.100000,-0.100000)">
	<path d="M4465,3813.7c-244,0-370.5,126.4-472.2,228c-88.3,88.2-152.1,152-288.4,152c-136.3,0-200.1-63.7-288.4-152
		c-101.7-101.6-228.2-228-472.2-228c-244,0-370.5,126.4-472.2,228c-88.3,88.2-152.1,152-288.4,152c-136.3,0-200.1-63.7-288.4-152
		c-101.7-101.6-228.2-228-472.2-228s-370.5,126.4-472.2,228c-88.3,88.2-152.1,152-288.4,152v260c244,0,370.5-126.4,472.2-228
		c88.3-88.2,152.1-152,288.4-152c136.3,0,200.1,63.7,288.4,152c101.7,101.6,228.2,228,472.2,228c244,0,370.5-126.4,472.2-228
		c88.3-88.2,152.1-152,288.4-152c136.3,0,200.1,63.7,288.4,152c101.7,101.6,228.2,228,472.2,228c244,0,370.5-126.4,472.2-228
		c88.3-88.2,152.1-152,288.4-152V3813.7z"/>
	<path d="M4462.8,3281.7c-244,0-370.5,126.4-472.2,228c-88.3,88.2-152.1,152-288.4,152c-136.3,0-200.1-63.7-288.4-152
		c-101.7-101.6-228.2-228-472.2-228s-370.5,126.4-472.2,228c-88.3,88.2-152.1,152-288.4,152s-200.1-63.7-288.4-152
		c-101.7-101.6-228.2-228-472.2-228s-370.5,126.4-472.2,228c-88.3,88.2-152.1,152-288.4,152v260c244,0,370.5-126.4,472.2-228
		c88.3-88.2,152.1-152,288.4-152c136.3,0,200.1,63.7,288.4,152c101.7,101.6,228.2,228,472.2,228s370.5-126.4,472.2-228
		c88.3-88.2,152.1-152,288.4-152c136.3,0,200.1,63.7,288.4,152c101.7,101.6,228.2,228,472.2,228c244,0,370.5-126.4,472.2-228
		c88.3-88.2,152.1-152,288.4-152V3281.7z"/>
	<path d="M4462.8,2749.7c-244,0-370.5,126.4-472.2,228c-88.3,88.2-152.1,152-288.4,152c-136.3,0-200.1-63.7-288.4-152
		c-101.7-101.6-228.2-228-472.2-228s-370.5,126.4-472.2,228c-88.3,88.2-152.1,152-288.4,152s-200.1-63.7-288.4-152
		c-101.7-101.6-228.2-228-472.2-228s-370.5,126.4-472.2,228c-88.3,88.2-152.1,152-288.4,152v260c244,0,370.5-126.4,472.2-228
		c88.3-88.2,152.1-152,288.4-152c136.3,0,200.1,63.7,288.4,152c101.7,101.6,228.2,228,472.2,228s370.5-126.4,472.2-228
		c88.3-88.2,152.1-152,288.4-152c136.3,0,200.1,63.7,288.4,152c101.7,101.6,228.2,228,472.2,228c244,0,370.5-126.4,472.2-228
		c88.3-88.2,152.1-152,288.4-152V2749.7z"/>
	<path d="M4462.8,2217.8c-244,0-370.5,126.4-472.2,228c-88.3,88.2-152.1,152-288.4,152c-136.3,0-200.1-63.7-288.4-152
		c-101.7-101.6-228.2-228-472.2-228s-370.5,126.4-472.2,228c-88.3,88.2-152.1,152-288.4,152s-200.1-63.7-288.4-152
		c-101.7-101.6-228.2-228-472.2-228s-370.5,126.4-472.2,228c-88.3,88.2-152.1,152-288.4,152v260c244,0,370.5-126.4,472.2-228
		c88.3-88.2,152.1-152,288.4-152c136.3,0,200.1,63.7,288.4,152c101.7,101.6,228.2,228,472.2,228s370.5-126.4,472.2-228
		c88.3-88.2,152.1-152,288.4-152c136.3,0,200.1,63.7,288.4,152c101.7,101.6,228.2,228,472.2,228c244,0,370.5-126.4,472.2-228
		c88.3-88.2,152.1-152,288.4-152V2217.8z"/>
	<path d="M4462.8,1685.8c-244,0-370.5,126.4-472.2,228c-88.3,88.2-152.1,152-288.4,152c-136.3,0-200.1-63.7-288.4-152
		c-101.7-101.6-228.2-228-472.2-228s-370.5,126.4-472.2,228c-88.3,88.2-152.1,152-288.4,152s-200.1-63.7-288.4-152
		c-101.7-101.6-228.2-228-472.2-228s-370.5,126.4-472.2,228c-88.3,88.2-152.1,152-288.4,152v260c244,0,370.5-126.4,472.2-228
		c88.3-88.2,152.1-152,288.4-152c136.3,0,200.1,63.7,288.4,152c101.7,101.6,228.2,228,472.2,228s370.5-126.4,472.2-228
		c88.3-88.2,152.1-152,288.4-152c136.3,0,200.1,63.7,288.4,152c101.7,101.6,228.2,228,472.2,228c244,0,370.5-126.4,472.2-228
		c88.3-88.2,152.1-152,288.4-152V1685.8z"/>
	<path d="M4462.8,1153.8c-244,0-370.5,126.4-472.2,228c-88.3,88.2-152.1,152-288.4,152c-136.3,0-200.1-63.7-288.4-152
		c-101.7-101.6-228.2-228-472.2-228s-370.5,126.4-472.2,228c-88.3,88.2-152.1,152-288.4,152s-200.1-63.7-288.4-152
		c-101.7-101.6-228.2-228-472.2-228s-370.5,126.4-472.2,228c-88.3,88.2-152.1,152-288.4,152v260c244,0,370.5-126.4,472.2-228
		c88.3-88.2,152.1-152,288.4-152c136.3,0,200.1,63.7,288.4,152c101.7,101.6,228.2,228,472.2,228s370.5-126.4,472.2-228
		c88.3-88.2,152.1-152,288.4-152c136.3,0,200.1,63.7,288.4,152c101.7,101.6,228.2,228,472.2,228c244,0,370.5-126.4,472.2-228
		c88.3-88.2,152.1-152,288.4-152V1153.8z"/>
	<path d="M4462.8,621.8c-244,0-370.5,126.4-472.2,228c-88.3,88.2-152.1,152-288.4,152c-136.3,0-200.1-63.7-288.4-152
		c-101.7-101.6-228.2-228-472.2-228s-370.5,126.4-472.2,228c-88.3,88.2-152.1,152-288.4,152s-200.1-63.7-288.4-152
		c-101.7-101.6-228.2-228-472.2-228s-370.5,126.4-472.2,228c-88.3,88.2-152.1,152-288.4,152v260c244,0,370.5-126.4,472.2-228
		c88.3-88.2,152.1-152,288.4-152c136.3,0,200.1,63.7,288.4,152c101.7,101.6,228.2,228,472.2,228s370.5-126.4,472.2-228
		c88.3-88.2,152.1-152,288.4-152c136.3,0,200.1,63.7,288.4,152c101.7,101.6,228.2,228,472.2,228c244,0,370.5-126.4,472.2-228
		c88.3-88.2,152.1-152,288.4-152V621.8z"/>
</g>
</svg>
